# xmcd
#
# Track frame offsets: 
#        183
#        18723
#        30858
#        48040
#        68310
#        90150
#        113208
#        131003
#        147308
#        170060
#        189340
#        215525
#        236833
#        255333
#        274905
#        300720
#        318740
#        333928
#
# Disc length: 4712 seconds
#
# Revision: 1
# Processed by: cddbd v1.5.1PL0 Copyright (c) Steve Scherf et al.
# Submitted via: ExactAudioCopy v0.95a5
#
DISCID=f5126612
DTITLE=Compilations - Parental Advisory Explicit Lyrics
DYEAR=1900
DGENRE=Rap
TTITLE0=Heavy D and The Boyz - Who's the man ?
TTITLE1=Paris - Sleeping with the enemy
TTITLE2=Kid Frost - The Volo
TTITLE3=Da Lench Mob - Buck tha devil (LC:0121)
TTITLE4=Yall so stupid - Van full of Pakistans
TTITLE5=Black radical MKII - Tough tune to whistel
TTITLE6=Jungle Brothers - 40 below trooper (LC:0392)
TTITLE7=Rumpletilskinz - Sweet therapy
TTITLE8=The Pharcyde - Passing me by
TTITLE9=Fat Joe da Gangsta - Flow Joe
TTITLE10=Too short - I want to be free (That's the truth)
TTITLE11=The 2 Live Crew - C'mon baby
TTITLE12=Lords of the Underground - Chief Rocka
TTITLE13=Eric B. and Rakim - Don't sweat the technique
TTITLE14=Masta Ace - Saturday nite live
TTITLE15=Young black teenagers - Tap the bottle
TTITLE16=N.W.A. - Appetite for destruction
TTITLE17=Ice Cube - It was a good day
EXTD=
EXTT0=
EXTT1=
EXTT2=
EXTT3=
EXTT4=
EXTT5=
EXTT6=
EXTT7=
EXTT8=
EXTT9=
EXTT10=
EXTT11=
EXTT12=
EXTT13=
EXTT14=
EXTT15=
EXTT16=
EXTT17=
PLAYORDER=
